<svg width="20" height="20" viewBox="0 0 20 20" fill="none" xmlns="http://www.w3.org/2000/svg">
<path d="M11.4965 18.6604L10.5055 19.6771C10.0859 20.1076 9.40743 20.1076 8.9923 19.6771L0.314697 10.7786C-0.104899 10.3481 -0.104899 9.65194 0.314697 9.22601L8.9923 0.322876C9.4119 -0.107625 10.0904 -0.107625 10.5055 0.322876L11.4965 1.33959C11.9205 1.77467 11.9116 2.48454 11.4786 2.91046L6.09977 8.16808H18.9287C19.5224 8.16808 20 8.65812 20 9.26723V10.7328C20 11.3419 19.5224 11.8319 18.9287 11.8319H6.09977L11.4786 17.0895C11.9161 17.5155 11.925 18.2253 11.4965 18.6604Z" fill="black"/>
</svg>
