<svg width="21" height="18" viewBox="0 0 21 18" fill="none" xmlns="http://www.w3.org/2000/svg">
<path d="M19.0312 9H1.96875C1.44661 9 0.945846 9.20319 0.576634 9.56487C0.207421 9.92654 0 10.4171 0 10.9286C0 11.4401 0.207421 11.9306 0.576634 12.2923C0.945846 12.654 1.44661 12.8571 1.96875 12.8571H19.0312C19.5534 12.8571 20.0542 12.654 20.4234 12.2923C20.7926 11.9306 21 11.4401 21 10.9286C21 10.4171 20.7926 9.92654 20.4234 9.56487C20.0542 9.20319 19.5534 9 19.0312 9ZM19.6875 14.1429H1.3125C1.13845 14.1429 0.971532 14.2106 0.848461 14.3311C0.72539 14.4517 0.65625 14.6152 0.65625 14.7857V15.4286C0.65625 16.1106 0.932812 16.7646 1.42509 17.2468C1.91738 17.7291 2.58506 18 3.28125 18H17.7188C18.4149 18 19.0826 17.7291 19.5749 17.2468C20.0672 16.7646 20.3438 16.1106 20.3438 15.4286V14.7857C20.3438 14.6152 20.2746 14.4517 20.1515 14.3311C20.0285 14.2106 19.8615 14.1429 19.6875 14.1429ZM2.40516 7.71429H18.5948C20.0128 7.71429 20.8351 5.95045 20.023 4.66554C18.375 2.05714 14.7472 0.00401786 10.5 0C6.25324 0.00401786 2.625 2.05714 0.976992 4.66513C0.164062 5.95004 0.987246 7.71429 2.40516 7.71429ZM15.75 3.21429C15.8798 3.21429 16.0067 3.25199 16.1146 3.32263C16.2225 3.39326 16.3066 3.49367 16.3563 3.61113C16.406 3.7286 16.419 3.85786 16.3936 3.98256C16.3683 4.10726 16.3058 4.22181 16.214 4.31171C16.1223 4.40162 16.0053 4.46284 15.878 4.48765C15.7507 4.51245 15.6188 4.49972 15.4989 4.45107C15.379 4.40241 15.2765 4.32001 15.2043 4.2143C15.1322 4.10858 15.0938 3.98429 15.0938 3.85714C15.0938 3.68665 15.1629 3.52313 15.286 3.40257C15.409 3.28202 15.576 3.21429 15.75 3.21429ZM10.5 1.92857C10.6298 1.92857 10.7567 1.96627 10.8646 2.03691C10.9725 2.10755 11.0566 2.20795 11.1063 2.32542C11.156 2.44288 11.169 2.57214 11.1436 2.69684C11.1183 2.82155 11.0558 2.93609 10.964 3.026C10.8723 3.1159 10.7553 3.17713 10.628 3.20193C10.5007 3.22674 10.3688 3.21401 10.2489 3.16535C10.129 3.11669 10.0265 3.0343 9.95435 2.92858C9.88224 2.82286 9.84375 2.69857 9.84375 2.57143C9.84375 2.40093 9.91289 2.23742 10.036 2.11686C10.159 1.9963 10.326 1.92857 10.5 1.92857ZM5.25 3.21429C5.37979 3.21429 5.50667 3.25199 5.61459 3.32263C5.72251 3.39326 5.80663 3.49367 5.8563 3.61113C5.90597 3.7286 5.91896 3.85786 5.89364 3.98256C5.86832 4.10726 5.80582 4.22181 5.71404 4.31171C5.62226 4.40162 5.50533 4.46284 5.37803 4.48765C5.25073 4.51245 5.11878 4.49972 4.99886 4.45107C4.87895 4.40241 4.77646 4.32001 4.70435 4.2143C4.63224 4.10858 4.59375 3.98429 4.59375 3.85714C4.59375 3.68665 4.66289 3.52313 4.78596 3.40257C4.90903 3.28202 5.07595 3.21429 5.25 3.21429Z" fill="black"/>
</svg>
