<svg width="28" height="15" viewBox="0 0 28 15" fill="none" xmlns="http://www.w3.org/2000/svg">
<path d="M21.0026 7.49915e-08H7.0005C5.84642 -0.00017302 4.71021 0.299308 3.69302 0.871781C2.67582 1.44425 1.80921 2.27195 1.17034 3.28119C0.531468 4.29043 0.140155 5.4499 0.0312413 6.65636C-0.0776727 7.86282 0.0991915 9.07884 0.546088 10.1962C0.992984 11.3135 1.69605 12.2974 2.59268 13.0604C3.48931 13.8234 4.5517 14.3417 5.68525 14.5693C6.8188 14.7968 7.98835 14.7265 9.08976 14.3646C10.1912 14.0027 11.1903 13.3604 11.9981 12.495H16.0019C16.8096 13.3604 17.8086 14.0026 18.9099 14.3645C20.0111 14.7264 21.1805 14.7968 22.314 14.5694C23.4474 14.342 24.5098 13.8239 25.4064 13.0612C26.3031 12.2984 27.0062 11.3147 27.4533 10.1976C27.9004 9.08055 28.0775 7.86471 27.9689 6.65836C27.8603 5.452 27.4694 4.29255 26.8309 3.2832C26.1924 2.27386 25.3262 1.44593 24.3093 0.873111C23.2925 0.300293 22.1565 0.000357172 21.0026 7.49915e-08ZM10.8502 7.90125C10.8502 8.04745 10.7949 8.18766 10.6965 8.29104C10.598 8.39442 10.4645 8.4525 10.3253 8.4525H8.05043V10.8413C8.05043 10.9875 7.99512 11.1277 7.89667 11.231C7.79822 11.3344 7.66469 11.3925 7.52546 11.3925H6.47554C6.33631 11.3925 6.20278 11.3344 6.10433 11.231C6.00588 11.1277 5.95058 10.9875 5.95058 10.8413V8.4525H3.67574C3.53651 8.4525 3.40298 8.39442 3.30453 8.29104C3.20608 8.18766 3.15078 8.04745 3.15078 7.90125V6.79875C3.15078 6.65255 3.20608 6.51234 3.30453 6.40896C3.40298 6.30558 3.53651 6.2475 3.67574 6.2475H5.95058V3.85875C5.95058 3.71255 6.00588 3.57234 6.10433 3.46896C6.20278 3.36558 6.33631 3.3075 6.47554 3.3075H7.52546C7.66469 3.3075 7.79822 3.36558 7.89667 3.46896C7.99512 3.57234 8.05043 3.71255 8.05043 3.85875V6.2475H10.3253C10.4645 6.2475 10.598 6.30558 10.6965 6.40896C10.7949 6.51234 10.8502 6.65255 10.8502 6.79875V7.90125ZM20.2995 11.3925C19.9535 11.3925 19.6151 11.2847 19.3274 11.0828C19.0396 10.8809 18.8153 10.5939 18.6829 10.2582C18.5504 9.92242 18.5158 9.55296 18.5833 9.19652C18.6508 8.84008 18.8175 8.51267 19.0622 8.25569C19.3069 7.99871 19.6187 7.82371 19.9582 7.75281C20.2976 7.68191 20.6495 7.7183 20.9692 7.85737C21.2889 7.99645 21.5622 8.23196 21.7545 8.53414C21.9468 8.83632 22.0494 9.19158 22.0494 9.555C22.0494 10.0423 21.8651 10.5097 21.5369 10.8543C21.2087 11.1989 20.7636 11.3925 20.2995 11.3925ZM23.0993 6.9825C22.7533 6.9825 22.4149 6.87473 22.1272 6.67283C21.8394 6.47092 21.6151 6.18394 21.4827 5.84818C21.3502 5.51242 21.3156 5.14296 21.3831 4.78652C21.4506 4.43008 21.6173 4.10267 21.862 3.84569C22.1067 3.58871 22.4185 3.41371 22.758 3.34281C23.0974 3.27191 23.4492 3.3083 23.769 3.44737C24.0887 3.58645 24.362 3.82196 24.5543 4.12414C24.7466 4.42632 24.8492 4.78158 24.8492 5.145C24.8492 5.63234 24.6649 6.09971 24.3367 6.44431C24.0085 6.78891 23.5634 6.9825 23.0993 6.9825Z" fill="black"/>
</svg>
