<svg width="26" height="20" viewBox="0 0 26 20" fill="none" xmlns="http://www.w3.org/2000/svg">
<path d="M12.1695 4.94296L4.16732 11.4019V18.3729C4.16732 18.5534 4.24048 18.7265 4.37072 18.8541C4.50095 18.9817 4.67758 19.0534 4.86176 19.0534L9.72548 19.0411C9.90905 19.0402 10.0848 18.9681 10.2143 18.8406C10.3438 18.713 10.4165 18.5404 10.4164 18.3605V14.2895C10.4164 14.109 10.4896 13.9359 10.6198 13.8083C10.7501 13.6807 10.9267 13.609 11.1109 13.609H13.8887C14.0728 13.609 14.2495 13.6807 14.3797 13.8083C14.51 13.9359 14.5831 14.109 14.5831 14.2895V18.3576C14.5828 18.4471 14.6006 18.5358 14.6354 18.6187C14.6701 18.7015 14.7212 18.7767 14.7857 18.8402C14.8503 18.9036 14.9269 18.9539 15.0113 18.9882C15.0957 19.0226 15.1862 19.0402 15.2776 19.0402L20.1395 19.0534C20.3237 19.0534 20.5004 18.9817 20.6306 18.8541C20.7608 18.7265 20.834 18.5534 20.834 18.3729V11.3972L12.8335 4.94296C12.7395 4.86866 12.6223 4.82815 12.5015 4.82815C12.3807 4.82815 12.2635 4.86866 12.1695 4.94296ZM24.8097 9.33297L21.1812 6.4019V0.510417C21.1812 0.375046 21.1263 0.245219 21.0287 0.149498C20.931 0.053776 20.7985 0 20.6604 0H18.2298C18.0917 0 17.9592 0.053776 17.8615 0.149498C17.7639 0.245219 17.709 0.375046 17.709 0.510417V3.59886L13.8231 0.465755C13.4502 0.165026 12.9823 0.000601162 12.4993 0.000601162C12.0164 0.000601162 11.5485 0.165026 11.1756 0.465755L0.189019 9.33297C0.136279 9.37569 0.0926449 9.42817 0.0606102 9.48742C0.0285755 9.54667 0.00876769 9.61153 0.00231864 9.67829C-0.0041304 9.74504 0.00290567 9.81239 0.0230248 9.87648C0.043144 9.94057 0.0759519 10.0001 0.119574 10.0518L1.22634 11.3704C1.26985 11.4222 1.32336 11.4651 1.38381 11.4967C1.44426 11.5282 1.51047 11.5478 1.57864 11.5542C1.64681 11.5607 1.71561 11.5539 1.7811 11.5342C1.84659 11.5146 1.90748 11.4825 1.96029 11.4397L12.1695 3.19904C12.2635 3.12474 12.3807 3.08422 12.5015 3.08422C12.6223 3.08422 12.7395 3.12474 12.8335 3.19904L23.0432 11.4397C23.0959 11.4825 23.1567 11.5146 23.2221 11.5343C23.2875 11.554 23.3562 11.5609 23.4243 11.5546C23.4924 11.5483 23.5586 11.5289 23.6191 11.4975C23.6795 11.4661 23.7331 11.4233 23.7767 11.3717L24.8835 10.0531C24.927 10.0011 24.9597 9.94124 24.9796 9.87687C24.9995 9.8125 25.0062 9.74491 24.9993 9.67799C24.9925 9.61107 24.9722 9.54614 24.9396 9.48693C24.9071 9.42772 24.8629 9.3754 24.8097 9.33297Z" fill="black"/>
</svg>
