<svg width="169" height="41" viewBox="0 0 169 41" fill="none" xmlns="http://www.w3.org/2000/svg">
<path d="M12.1739 0.295997L24.1019 0.407999L29.3099 0.295997C29.3846 1.11733 29.4219 1.99466 29.4219 2.928C29.4219 3.86133 29.2166 4.51467 28.8059 4.888C28.4326 5.224 27.7232 5.392 26.6779 5.392C25.6699 5.392 24.8486 5.37333 24.2139 5.336C22.7952 19.9333 21.3952 29.136 20.0139 32.944C18.8192 36.304 17.1952 38.544 15.1419 39.664C13.8726 40.3733 12.3419 40.728 10.5499 40.728C8.79524 40.728 6.92857 40.224 4.94991 39.216C2.97124 38.1707 1.40324 36.9573 0.245906 35.576L2.26191 32.72C2.70991 33.056 3.40057 33.4667 4.33391 33.952C5.30457 34.4 6.12591 34.624 6.79791 34.624C7.50724 34.624 8.16057 34.2507 8.75791 33.504C10.1019 31.7493 11.2779 27.008 12.2859 19.28C12.9952 13.9787 13.3499 9.51733 13.3499 5.896V4.944C10.7739 5.01867 8.83257 5.26133 7.52591 5.672C7.00324 4.104 6.70457 2.51733 6.62991 0.911999C7.45124 0.501331 9.29924 0.295997 12.1739 0.295997ZM27.6592 35.464C27.6592 33.896 28.1446 31.32 29.1152 27.736C30.1232 24.152 30.6272 21.9493 30.6272 21.128C30.6272 20.3067 29.9552 19.112 28.6112 17.544L28.7232 16.704C32.1206 15.9573 36.0966 15.584 40.6512 15.584C40.9499 16.2187 41.0992 17.2267 41.0992 18.608C41.0992 19.9893 40.5766 22.6027 39.5312 26.448C38.5232 30.2933 38.0192 32.5707 38.0192 33.28C38.0192 34.2507 38.4859 34.736 39.4192 34.736C40.0539 34.736 40.8566 34.4933 41.8272 34.008C41.9392 33.4107 42.2752 31.8427 42.8352 29.304C44.1419 23.6667 44.7952 19.448 44.7952 16.648C46.5126 15.9013 49.4432 15.528 53.5872 15.528H55.0992C55.0992 17.208 54.5952 20.4933 53.5872 25.384C52.6166 30.2747 52.1126 33.0933 52.0752 33.84C52.0752 34.5867 52.2432 34.96 52.5792 34.96L55.3232 34.232L56.3312 37.032C55.2486 37.8907 53.6806 38.712 51.6272 39.496C49.5739 40.28 47.7632 40.672 46.1952 40.672C43.8806 40.672 42.4432 39.7387 41.8832 37.872C38.7846 39.7387 35.8166 40.672 32.9792 40.672C29.4326 40.672 27.6592 38.936 27.6592 35.464ZM76.6588 32.44C76.6588 34.7547 75.5761 36.7147 73.4108 38.32C71.2828 39.888 68.7814 40.672 65.9068 40.672C63.0321 40.672 60.6614 40.1867 58.7948 39.216C56.9654 38.2453 56.0508 37.3307 56.0508 36.472C56.0508 35.576 56.6108 34.456 57.7308 33.112C58.8881 31.7307 60.0641 30.928 61.2588 30.704C62.9761 31.6373 64.5254 33.7093 65.9068 36.92C66.9894 36.92 67.5308 36.5653 67.5308 35.856C67.5308 35.3333 67.3814 34.848 67.0828 34.4C66.7841 33.952 66.5601 33.5973 66.4108 33.336C66.2614 33.0747 66.0001 32.72 65.6268 32.272C65.2534 31.7867 64.9734 31.432 64.7868 31.208C63.8534 30.088 63.0134 29.0613 62.2668 28.128C60.4748 25.888 59.5788 23.928 59.5788 22.248C59.5788 20.5307 60.1201 19.1307 61.2028 18.048C63.0694 16.144 65.8134 15.192 69.4348 15.192C71.7121 15.192 73.5228 15.64 74.8668 16.536C76.2108 17.3947 76.8828 18.7013 76.8828 20.456C76.8828 22.1733 75.8561 24.152 73.8028 26.392C75.7068 28.5947 76.6588 30.6107 76.6588 32.44ZM72.9068 22.192C73.3548 21.4827 73.5788 20.848 73.5788 20.288C73.5788 19.728 73.3361 19.2987 72.8508 19C72.3654 18.7013 71.7868 18.552 71.1148 18.552C70.4428 18.552 69.9201 18.72 69.5468 19.056C69.2108 19.3547 69.0428 19.7653 69.0428 20.288C69.0428 20.8107 69.8454 21.968 71.4508 23.76C71.9734 23.3867 72.4588 22.864 72.9068 22.192ZM98.4297 20.176L93.6137 19.784C92.1203 26.4667 91.299 30.3493 91.1497 31.432C91.0377 32.5147 90.9817 33.4107 90.9817 34.12C90.9817 34.792 91.2057 35.128 91.6537 35.128C92.1763 35.128 93.1657 34.792 94.6217 34.12L95.9657 36.808C94.771 37.8907 93.259 38.8053 91.4297 39.552C89.6003 40.2987 87.827 40.672 86.1097 40.672C84.4297 40.672 83.0857 40.2427 82.0777 39.384C81.0697 38.488 80.5657 37.2373 80.5657 35.632C80.5657 34.0267 81.0323 31.4507 81.9657 27.904C82.899 24.3573 83.515 21.7253 83.8137 20.008C82.9177 20.0827 81.5923 20.2133 79.8377 20.4C79.6883 19.616 79.6137 18.888 79.6137 18.216C79.6137 17.5067 79.707 16.7227 79.8937 15.864H84.3737C84.411 15.3787 84.4297 13.7547 84.4297 10.992L84.3177 8.696C87.939 7.50133 91.3923 6.904 94.6777 6.904C94.939 7.50133 95.0697 8.54666 95.0697 10.04C95.0697 11.496 94.827 13.4373 94.3417 15.864H99.3817C99.3817 17.3947 99.0643 18.832 98.4297 20.176ZM107.44 0.295997L119.368 0.407999L124.576 0.295997C124.65 1.11733 124.688 1.99466 124.688 2.928C124.688 3.86133 124.482 4.51467 124.072 4.888C123.698 5.224 122.989 5.392 121.944 5.392C120.936 5.392 120.114 5.37333 119.48 5.336C118.061 19.9333 116.661 29.136 115.28 32.944C114.085 36.304 112.461 38.544 110.408 39.664C109.138 40.3733 107.608 40.728 105.816 40.728C104.061 40.728 102.194 40.224 100.216 39.216C98.2369 38.1707 96.6689 36.9573 95.5115 35.576L97.5275 32.72C97.9755 33.056 98.6662 33.4667 99.5995 33.952C100.57 34.4 101.392 34.624 102.064 34.624C102.773 34.624 103.426 34.2507 104.024 33.504C105.368 31.7493 106.544 27.008 107.552 19.28C108.261 13.9787 108.616 9.51733 108.616 5.896V4.944C106.04 5.01867 104.098 5.26133 102.792 5.672C102.269 4.104 101.97 2.51733 101.896 0.911999C102.717 0.501331 104.565 0.295997 107.44 0.295997ZM136.029 19C136.029 20.6427 135.562 23.2 134.629 26.672C133.696 30.1067 133.229 32.3467 133.229 33.392C133.229 34.4373 133.434 34.96 133.845 34.96C134.256 34.96 135.002 34.7733 136.085 34.4L136.589 34.176L137.597 36.976C136.328 37.9467 134.741 38.8053 132.837 39.552C130.97 40.2987 129.272 40.672 127.741 40.672C126.21 40.672 124.997 40.2427 124.101 39.384C123.242 38.5253 122.813 37.2933 122.813 35.688C122.813 34.0453 123.261 31.5627 124.157 28.24C125.09 24.88 125.557 22.752 125.557 21.856C125.557 20.4747 125.072 19.168 124.101 17.936L123.653 17.32L123.821 16.368C125.762 15.7707 129.533 15.472 135.133 15.472C135.73 16.144 136.029 17.32 136.029 19ZM131.829 11.104C130.149 11.104 128.824 10.656 127.853 9.76C126.92 8.864 126.453 7.72533 126.453 6.344C126.453 4.92533 127.032 3.74933 128.189 2.816C129.384 1.84533 130.821 1.36 132.501 1.36C134.181 1.36 135.488 1.752 136.421 2.536C137.354 3.32 137.821 4.42133 137.821 5.84C137.821 7.25867 137.242 8.49067 136.085 9.536C134.965 10.5813 133.546 11.104 131.829 11.104ZM148.282 40.672C145.37 40.672 143.074 39.7573 141.394 37.928C139.714 36.0613 138.874 33.448 138.874 30.088C138.874 25.9813 140.087 22.5093 142.514 19.672C144.941 16.7973 148.133 15.36 152.09 15.36L154.61 15.584C155.506 15.3227 156.346 15.192 157.13 15.192C158.997 15.192 160.322 15.8267 161.106 17.096C161.927 18.3653 162.394 20.176 162.506 22.528C164.074 22.4533 165.567 22.2107 166.986 21.8L167.77 21.576C168.031 21.8373 168.218 22.6213 168.33 23.928L168.386 24.544C166.706 25.4027 164.653 26.0747 162.226 26.56C161.405 30.5173 159.781 33.8587 157.354 36.584C154.927 39.3093 151.903 40.672 148.282 40.672ZM149.402 29.864C149.402 33.336 150.279 35.072 152.034 35.072C153.266 35.072 154.517 34.288 155.786 32.72C157.093 31.152 157.989 29.248 158.474 27.008C154.666 27.008 152.762 25.1787 152.762 21.52C152.762 20.8853 152.818 20.232 152.93 19.56C152.557 19.56 152.277 19.616 152.09 19.728C151.455 20.4 150.839 21.7627 150.242 23.816C149.682 25.832 149.402 27.848 149.402 29.864Z" fill="#4E1164"/>
</svg>
