<svg width="29" height="29" viewBox="0 0 29 29" fill="none" xmlns="http://www.w3.org/2000/svg">
<path d="M26.9286 11.3929H17.6071V2.07143C17.6071 0.927612 16.6795 0 15.5357 0H13.4643C12.3205 0 11.3929 0.927612 11.3929 2.07143V11.3929H2.07143C0.927612 11.3929 0 12.3205 0 13.4643V15.5357C0 16.6795 0.927612 17.6071 2.07143 17.6071H11.3929V26.9286C11.3929 28.0724 12.3205 29 13.4643 29H15.5357C16.6795 29 17.6071 28.0724 17.6071 26.9286V17.6071H26.9286C28.0724 17.6071 29 16.6795 29 15.5357V13.4643C29 12.3205 28.0724 11.3929 26.9286 11.3929Z" fill="white"/>
</svg>
